<svg width="263" height="74" viewBox="0 0 263 74" fill="none" xmlns="http://www.w3.org/2000/svg">
<rect x="0.5" y="0.5" width="262" height="73" rx="17.5" fill="url(#paint0_linear)" stroke="#EBEBEB"/>
<g filter="url(#filter0_d)">
<path d="M62.3184 23.8633V25.4453H47.6582V35.4648H61.7207V37.0469H47.6582V47.418H62.5645V49H45.8125V23.8633H62.3184ZM95.4433 48.1211V46.1875C98.08 47.125 100.986 47.5938 104.162 47.5938C109.424 47.5938 112.055 45.6016 112.055 41.6172C112.055 38.6875 110.344 37.2227 106.922 37.2227H101.754C97.078 37.2227 94.7402 35.1133 94.7402 30.8945C94.7402 26.0898 98.1679 23.6875 105.023 23.6875C107.836 23.6875 110.56 24.0391 113.197 24.7422V26.5C110.56 25.6797 107.836 25.2695 105.023 25.2695C99.3984 25.2695 96.5859 27.1445 96.5859 30.8945C96.5859 33.9414 98.3085 35.4648 101.754 35.4648H106.922C111.574 35.4648 113.9 37.5156 113.9 41.6172C113.9 46.6562 110.654 49.1758 104.162 49.1758C100.986 49.1758 98.08 48.8242 95.4433 48.1211ZM130.032 46.293C131.895 46.9258 133.612 47.2422 135.183 47.2422C139.952 47.2422 142.337 44.5879 142.337 39.2793C142.337 34.5566 139.964 32.1953 135.218 32.1953C133.577 32.1953 131.849 32.3359 130.032 32.6172V46.293ZM128.186 31.2988C130.284 30.7949 132.64 30.543 135.253 30.543C141.171 30.543 144.13 33.4668 144.13 39.3145C144.13 45.7715 141.153 49 135.2 49C133.724 49 132.001 48.707 130.032 48.1211V55.6797H128.186V31.2988ZM157.379 43.7793C157.379 40.1113 159.816 38.2773 164.691 38.2773C166.414 38.2773 168.254 38.3945 170.211 38.6289V36.3613C170.211 33.5371 168.435 32.125 164.885 32.125C162.986 32.125 161.041 32.418 159.049 33.0039V31.4219C161.041 30.8359 162.986 30.543 164.885 30.543C169.666 30.543 172.056 32.4531 172.056 36.2734V49H170.931L170.51 47.1719C168.201 48.3906 165.963 49 163.795 49C159.517 49 157.379 47.2598 157.379 43.7793ZM164.691 39.8594C161.047 39.8594 159.224 41.1484 159.224 43.7266C159.224 46.1875 160.748 47.418 163.795 47.418C166.045 47.418 168.183 46.8203 170.211 45.625V40.2109C168.254 39.9766 166.414 39.8594 164.691 39.8594ZM200.598 48.4727C199.075 48.8242 197.434 49 195.677 49C189.466 49 186.36 45.8066 186.36 39.4199C186.36 33.502 189.466 30.543 195.677 30.543C197.434 30.543 199.075 30.7188 200.598 31.0703V32.6523C198.958 32.3008 197.376 32.125 195.852 32.125C190.872 32.125 188.382 34.5566 188.382 39.4199C188.382 44.752 190.872 47.418 195.852 47.418C197.376 47.418 198.958 47.2422 200.598 46.8906V48.4727ZM221.898 30.543C226.949 30.543 229.474 33.3379 229.474 38.9277C229.474 39.3262 229.463 39.7422 229.439 40.1758H215.429C215.429 45.0039 217.984 47.418 223.094 47.418C225.191 47.418 227.054 47.125 228.683 46.5391V48.1211C227.054 48.707 225.191 49 223.094 49C216.754 49 213.584 45.8535 213.584 39.5605C213.584 33.5488 216.355 30.543 221.898 30.543ZM215.429 38.5234H227.699C227.629 34.2344 225.695 32.0898 221.898 32.0898C217.797 32.0898 215.64 34.2344 215.429 38.5234Z" fill="white"/>
</g>
<path d="M85 30L76 38H79.5L75.5 46L84 37.5H81L85 30Z" fill="white"/>
<defs>
<filter id="filter0_d" x="41.8125" y="23.6875" width="191.662" height="39.9922" filterUnits="userSpaceOnUse" color-interpolation-filters="sRGB">
<feFlood flood-opacity="0" result="BackgroundImageFix"/>
<feColorMatrix in="SourceAlpha" type="matrix" values="0 0 0 0 0 0 0 0 0 0 0 0 0 0 0 0 0 0 127 0"/>
<feOffset dy="4"/>
<feGaussianBlur stdDeviation="2"/>
<feColorMatrix type="matrix" values="0 0 0 0 0 0 0 0 0 0 0 0 0 0 0 0 0 0 0.25 0"/>
<feBlend mode="normal" in2="BackgroundImageFix" result="effect1_dropShadow"/>
<feBlend mode="normal" in="SourceGraphic" in2="effect1_dropShadow" result="shape"/>
</filter>
<linearGradient id="paint0_linear" x1="-6.5" y1="43" x2="528.5" y2="45" gradientUnits="userSpaceOnUse">
<stop stop-color="#2F80ED"/>
<stop offset="1" stop-color="#2F80ED" stop-opacity="0"/>
</linearGradient>
</defs>
</svg>
